<?xml version="1.0" encoding="UTF-8"?>
<!DOCTYPE svg PUBLIC "-//W3C//DTD SVG 1.1//EN" "http://www.w3.org/Graphics/SVG/1.1/DTD/svg11.dtd">
<!-- Creator: CorelDRAW 2021 (64-Bit) -->
<svg xmlns="http://www.w3.org/2000/svg" xml:space="preserve" width="84.6667mm" height="28.468mm" version="1.1" style="shape-rendering:geometricPrecision; text-rendering:geometricPrecision; image-rendering:optimizeQuality; fill-rule:evenodd; clip-rule:evenodd"
viewBox="0 0 1461.07 491.26"
 xmlns:xlink="http://www.w3.org/1999/xlink"
 xmlns:xodm="http://www.corel.com/coreldraw/odm/2003">
 <defs>
  <style type="text/css">
   <![CDATA[
    .fil0 {fill:none}
    .fil2 {fill:#1F1B20}
    .fil1 {fill:#0D8FC9}
   ]]>
  </style>
 </defs>
 <g id="Layer_x0020_1">
  <metadata id="CorelCorpID_0Corel-Layer"/>
  <g id="_2979347451520">
   <rect class="fil0" x="-0" y="-0" width="1461.07" height="491.26"/>
   <g>
    <path class="fil1" d="M789.38 145.72c0,15.22 15.05,-1.6 30.43,14.15 6.73,6.94 43.56,55.79 51.25,66.46 3.52,4.8 3.2,1.6 3.52,8.54 -10.89,2.67 -37.8,32.83 -47.41,42.71 -26.9,26.96 -13.13,34.97 -33.63,34.43 -13.77,-0.27 -13.13,-2.4 -13.13,10.41 10.57,2.4 69.19,2.4 79.76,0 0,-12.81 0.32,-10.68 -13.13,-10.41 -8.33,0 -16.98,1.87 -16.98,-6.67 0,-17.62 37.16,-56.85 50.93,-64.06 2.88,2.14 31.71,44.31 36.2,50.18 5.44,7.74 9.61,12.55 9.61,20.55l-28.83 0c0,8.27 -0.96,11.74 4.16,11.74l88.73 0 0 -11.74c-21.78,0 -22.42,3.74 -39.72,-19.22l-41.32 -57.92c-2.88,-4.27 -6.41,-7.47 -7.69,-13.08 0.64,-1.34 15.05,-14.95 17.3,-16.55 12.49,-9.61 30.43,-31.76 39.4,-45.64 6.41,-9.34 9.93,-7.21 26.9,-7.21l0 -10.41 -77.19 0 0 10.41c21.78,0 43.24,-6.14 14.09,33.63 -7.69,10.14 -16.98,20.82 -27.23,27.76l-11.21 -14.95c-3.84,-5.6 -7.37,-10.14 -11.53,-15.75 -25.3,-35.23 -23.06,-30.7 9.61,-30.7l0 -10.41 -88.73 0c-3.2,0 -4.16,0.8 -4.16,3.74z"/>
    <path class="fil1" d="M590.79 152.39c15.69,0 15.05,0.27 21.78,17.08l46.44 110.77c2.88,7.74 6.08,13.88 9.29,21.89 9.61,22.95 22.74,16.82 -22.74,77.67 -31.39,41.91 -41,34.17 -47.08,43.24 3.84,5.6 5.44,3.2 20.82,1.07 33.31,-4.8 25.62,-1.07 36.19,-18.69 3.84,-6.14 6.73,-12.81 9.61,-18.95 9.93,-19.22 25.63,-56.59 33.95,-77.41 8.65,-21.36 24.66,-59.79 31.39,-79.81 3.84,-11.21 20.82,-60.59 26.9,-71 4.49,-7.21 3.84,-5.87 19.22,-5.87l0 -10.41 -68.23 0c-4.48,0 -3.84,2.13 -3.84,6.41 0,12.55 28.83,-8.01 28.83,15.75 0,20.02 -9.93,49.11 -15.69,68.07 -3.2,10.41 -6.73,20.02 -10.57,29.9l-8.97 21.09c-2.24,4.54 -0.64,4 -5.45,5.34 -4.48,-18.95 -50.93,-120.92 -50.93,-132.13 0,-6.67 11.85,-4 30.11,-4l0 -10.41 -81.04 0 0 10.41z"/>
    <path class="fil1" d="M372.34 304.01c-16.02,0 -28.83,-0.53 -28.83,-24.82 0,-17.88 11.85,-26.96 23.38,-34.17 9.93,-6.41 28.51,-12.81 44.52,-12.81 1.92,8.01 0.64,43.78 -2.56,50.98 -3.52,9.08 -23.38,20.82 -36.52,20.82zm-50.93 -112.38c0,15.48 17.62,9.34 24.34,-2.94 4.8,-9.08 4.16,-11.74 4.16,-24.56 4.48,-2.94 7.05,-4.8 13.77,-6.14 64.38,-10.94 49.01,31.5 49.01,63.79 -23.06,5.34 -44.52,8.81 -62.46,19.75 -43.56,26.16 -39.72,83.55 -5.44,83.55 23.7,0 39.08,-4.54 56.7,-21.89 3.84,-4.01 7.05,-9.34 12.49,-10.94 3.2,13.08 15.37,27.23 26.26,32.83 8.33,4.27 12.81,5.34 20.5,-0.53 4.49,-3.74 13.13,-10.68 13.45,-16.55 -20.5,-4.8 -35.23,-17.88 -35.23,-40.57 0,-26.43 1.6,-53.92 3.84,-78.48 2.56,-28.83 -6.09,-46.98 -36.52,-46.98 -23.7,0 -41.32,1.6 -58.94,13.08 -8.65,5.6 -25.95,22.95 -25.95,36.57z"/>
    <path class="fil1" d="M486.05 42.42c8.65,2.13 19.54,1.33 30.11,1.33 3.84,16.82 5.13,28.83 5.13,48.58 0,29.63 2.24,203.93 -1.28,218.34 -7.05,0 -13.77,0 -20.82,0 -16.34,0 -16.98,-2.4 -16.98,9.08 0,2.94 0.96,4 3.84,4l95.45 0c5.44,0 5.13,-4.8 5.13,-8.01 0,-8.01 -19.86,-5.07 -33.95,-5.07 -9.61,-20.29 -3.84,-76.88 -3.84,-104.63l0 -74.74c0,-13.61 1.28,-24.02 1.28,-36.57l0 -54.99c0,-21.62 2.24,-18.15 -18.26,-12.81 -6.09,1.34 -10.25,2.14 -17.62,3.2 -27.55,4 -28.19,-7.47 -28.19,12.28z"/>
    <path class="fil2" d="M215.39 332.84c46.77,0 40.68,-4.8 75.91,-13.08 0,-5.07 1.6,-12.28 2.88,-17.88 0.64,-4.54 2.24,-12.28 3.52,-17.35 -9.61,0.27 -1.92,0 -15.38,10.94 -16.66,13.35 -38.44,21.62 -60.54,21.62 -56.37,0 -86.16,-36.84 -86.16,-95.29 0,-97.7 96.41,-112.38 132.29,-77.68 10.57,10.14 20.5,29.36 21.78,44.84l4.16 0c0.32,-5.34 1.28,-7.21 1.28,-14.41l1.28 -49.65c-5.44,-1.33 -10.89,-3.47 -16.01,-5.07 -31.71,-8.54 -69.51,-12.55 -100.58,-0.27 -33.63,13.35 -52.85,38.97 -59.58,73.94 -1.28,8.27 -1.6,17.08 -2.56,24.56 -3.2,21.09 6.41,64.86 23.38,81.68 9.29,9.61 16.98,17.88 30.43,23.49 12.81,5.34 26.26,9.61 43.88,9.61z"/>
    <path class="fil1" d="M83.1 219.13c0,20.82 6.73,38.97 14.41,52.32 6.73,11.48 20.82,29.36 31.39,36.57 -0.96,-3.74 -2.56,-5.07 -4.49,-8.27 -27.23,-42.97 -30.75,-94.23 -7.69,-139.87 2.24,-4.27 7.37,-13.08 8.33,-16.55 -10.25,5.34 -16.02,12.55 -22.42,20.55 -11.53,13.88 -19.54,33.63 -19.54,55.25z"/>
    <path class="fil2" d="M754.01 392.12c0,12.01 6.73,21.09 16.65,24.02 10.89,3.47 23.7,2.4 34.92,5.61 27.22,7.47 6.08,55.79 -36.52,34.97 -4.8,-2.4 -4.16,-1.07 -6.08,-5.6 -1.28,-3.2 -0.96,-7.21 -0.96,-12.01l-5.44 0c0,13.08 -0.96,18.15 -1.28,23.76 23.07,5.34 9.61,5.07 38.12,5.07 8.33,0 20.82,-6.68 25.63,-10.68 11.53,-10.14 18.58,-30.43 4.16,-44.04 -13.45,-12.28 -54.77,-0.27 -54.77,-23.76 0,-16.28 8.33,-23.49 26.26,-23.49 5.13,0 11.21,1.33 15.06,2.93 8.01,3.21 7.05,9.88 7.05,17.88l5.13 0c0,-8.27 1.28,-15.48 2.88,-22.15 -16.66,-4 -35.88,-13.34 -58.29,2.14 -6.73,4.54 -12.49,14.95 -12.49,25.36zm362.27 -27.49c0,22.69 16.98,13.35 16.98,5.34 0,-3.47 -3.2,-14.41 -16.98,-5.34zm-10.25 35.24l0 5.34c15.7,0 11.53,-6.94 11.53,50.98 0,6.41 -6.73,5.34 -11.53,5.34l0 5.07 37.8 0 0 -5.07c-8.65,0 -11.21,0.53 -11.85,-7.74 -1.6,-19.22 0,-37.1 0,-56.32 0,-6.41 -3.2,-2.4 -10.57,-0.27 -3.84,1.07 -11.53,2.4 -15.38,2.67zm-187.06 -39.24c0.32,6.14 0,5.34 11.53,5.34 0,8.27 1.28,10.94 1.28,19.48 0,8.81 0.96,67 -1.6,73.14 -3.2,8.27 -10.25,-3.74 -11.21,8.01l37.8 0 0 -5.07c-4.8,0 -11.85,1.06 -11.85,-5.34l0 -86.21c0,-9.61 5.45,-17.62 -4.48,-14.15 -6.73,2.14 -13.77,4.27 -21.46,4.8zm147.66 15.75l0 24.82c-5.12,1.34 -10.25,2.67 -11.85,8.01l11.85 0 0 40.57c0,22.69 21.46,18.69 24.35,17.62 3.2,-1.33 5.77,-4.01 8.32,-7.74 7.37,-12.28 -18.26,8.54 -18.26,-11.22l0 -40.57 19.54 0 0 -8.01 -19.54 0 0 -19.49c0,-4.54 3.21,-9.34 -3.2,-8.27 -3.84,0.8 -4.49,3.73 -11.21,4.27zm257.53 39.24c0,28.56 43.24,14.15 43.24,32.83 0,20.02 -36.51,14.95 -36.51,5.08l0 -10.41 -5.13 0c0,7.74 -1.6,12.81 -1.6,22.15 10.89,1.07 4.48,2.67 27.55,2.67 11.53,0 26.26,-9.61 26.26,-20.82l0 -6.67c0,-22.96 -41.96,-9.88 -41.96,-28.83 0,-11.74 16.34,-14.95 26.26,-7.74 4.16,2.67 5.13,4.81 5.13,11.75l5.12 0c0,-21.09 3.2,-15.48 -1.28,-18.15 -8.65,-5.07 -47.08,-7.47 -47.08,18.15zm-158.24 10.41c0,-35.5 44.52,-37.37 44.52,9.34 0,39.77 -44.52,35.77 -44.52,-9.34zm-14.41 4c0,20.55 11.86,37.9 30.11,37.9 12.17,0 22.42,-0.54 32.67,-10.68 19.54,-19.76 13.45,-65.93 -26.59,-63 -21.46,1.34 -36.2,15.48 -36.2,35.77zm-278.35 -30.16c28.83,0 32.35,62.99 3.85,62.99 -28.51,0 -34.92,-62.99 -3.85,-62.99zm-35.55 31.49c0,18.95 12.49,36.57 30.11,36.57l9.29 0c16.33,0 33.95,-17.62 33.95,-33.9 0,-15.22 0.32,-20.82 -12.17,-32.57 -15.69,-14.68 -61.18,-9.07 -61.18,29.9zm125.56 -31.49l0 5.34c15.38,0 12.17,-2.93 11.86,37.9 0,24.02 10.89,24.83 27.54,24.83 9.29,0 15.38,-9.34 20.82,-13.08 0,6.68 0,6.94 -1.28,11.75l26.27 0 0 -5.07c-14.73,0 -11.85,2.13 -11.85,-36.84 0,-45.11 9.29,-27.76 -26.26,-24.82l0 5.34c16.98,0 13.13,-5.34 13.13,33.9 0,20.02 -35.23,32.3 -35.23,0 0,-16.82 1.28,-28.83 1.28,-45.64 -4.8,2.4 -18.9,6.41 -26.27,6.41zm268.42 0l0 5.34 11.53 0c1.6,17.89 1.28,15.48 1.28,35.24 0,4.54 -0.32,9.61 -0.64,12.27 -1.28,9.34 1.6,8.81 -12.17,8.81l0 5.07 39.08 0c-0.64,-7.48 -3.2,-5.07 -11.85,-5.07 -1.6,-7.74 -4.16,-45.91 3.84,-52.59 8.01,-6.94 22.42,-6.14 27.55,1.33 6.41,9.08 2.56,30.17 2.56,36.84 0,8.27 0.32,12.55 -1.28,19.48l27.55 0 0 -5.07c-15.05,0 -11.85,2.93 -11.85,-30.17 0,-12.01 0.64,-22.15 -4.8,-29.09 -4.8,-6.14 -15.69,-9.08 -24.02,-7.74 -12.81,1.87 -12.49,7.74 -20.82,13.35 0,-24.02 0.96,-10.14 -25.94,-8.01z"/>
   </g>
  </g>
 </g>
</svg>
