<?xml version="1.0" encoding="UTF-8"?>
<!DOCTYPE svg PUBLIC "-//W3C//DTD SVG 1.1//EN" "http://www.w3.org/Graphics/SVG/1.1/DTD/svg11.dtd">
<!-- Creator: CorelDRAW 2021 (64-Bit) -->
<svg xmlns="http://www.w3.org/2000/svg" xml:space="preserve" width="84.6667mm" height="28.468mm" version="1.1" style="shape-rendering:geometricPrecision; text-rendering:geometricPrecision; image-rendering:optimizeQuality; fill-rule:evenodd; clip-rule:evenodd"
viewBox="0 0 2628.85 883.92"
 xmlns:xlink="http://www.w3.org/1999/xlink"
 xmlns:xodm="http://www.corel.com/coreldraw/odm/2003">
 <defs>
  <style type="text/css">
   <![CDATA[
    .fil0 {fill:none}
    .fil1 {fill:white}
   ]]>
  </style>
 </defs>
 <g id="Layer_x0020_1">
  <metadata id="CorelCorpID_0Corel-Layer"/>
  <g id="_2982843972000">
   <rect class="fil0" x="-0" y="-0" width="2628.85" height="883.92"/>
   <g>
    <path class="fil1" d="M1420.31 262.19c0,27.38 27.09,-2.88 54.75,25.45 12.1,12.49 78.38,100.38 92.21,119.59 6.34,8.64 5.77,2.88 6.34,15.37 -19.6,4.8 -68,59.07 -85.3,76.84 -48.41,48.51 -23.63,62.92 -60.51,61.96 -24.78,-0.48 -23.63,-4.32 -23.63,18.73 19.02,4.33 124.48,4.33 143.5,0 0,-23.05 0.57,-19.21 -23.63,-18.73 -14.98,0 -30.54,3.36 -30.54,-12.01 0,-31.7 66.85,-102.3 91.63,-115.26 5.19,3.84 57.06,79.73 65.13,90.29 9.8,13.93 17.29,22.57 17.29,36.98l-51.87 0c0,14.89 -1.73,21.13 7.49,21.13l159.64 0 0 -21.13c-39.19,0 -40.34,6.73 -71.46,-34.58l-74.34 -104.22c-5.19,-7.68 -11.53,-13.45 -13.83,-23.53 1.15,-2.4 27.09,-26.9 31.12,-29.78 22.48,-17.29 54.75,-57.15 70.89,-82.13 11.53,-16.81 17.87,-12.97 48.41,-12.97l0 -18.73 -138.89 0 0 18.73c39.19,0 77.8,-11.04 25.36,60.52 -13.83,18.25 -30.54,37.46 -48.99,49.95l-20.17 -26.9c-6.92,-10.08 -13.26,-18.25 -20.75,-28.34 -45.53,-63.39 -41.49,-55.23 17.29,-55.23l0 -18.73 -159.64 0c-5.76,0 -7.49,1.44 -7.49,6.72z"/>
    <path class="fil1" d="M1062.99 274.2c28.24,0 27.09,0.48 39.19,30.74l83.57 199.31c5.19,13.93 10.95,24.98 16.71,39.38 17.29,41.3 40.92,30.26 -40.92,139.76 -56.48,75.4 -73.77,61.47 -84.72,77.8 6.91,10.08 9.8,5.76 37.46,1.92 59.93,-8.64 46.11,-1.92 65.12,-33.62 6.91,-11.04 12.1,-23.05 17.29,-34.1 17.87,-34.58 46.11,-101.82 61.09,-139.28 15.56,-38.42 44.38,-107.58 56.48,-143.6 6.91,-20.17 37.46,-109.02 48.41,-127.75 8.07,-12.97 6.92,-10.57 34.58,-10.57l0 -18.73 -122.76 0c-8.07,0 -6.91,3.84 -6.91,11.53 0,22.57 51.87,-14.41 51.87,28.34 0,36.02 -17.87,88.37 -28.24,122.47 -5.76,18.73 -12.1,36.02 -19.02,53.79l-16.14 37.94c-4.04,8.16 -1.16,7.2 -9.8,9.6 -8.07,-34.1 -91.63,-217.56 -91.63,-237.73 0,-12 21.32,-7.2 54.17,-7.2l0 -18.73 -145.81 0 0 18.73z"/>
    <path class="fil1" d="M669.94 546.99c-28.82,0 -51.87,-0.96 -51.87,-44.66 0,-32.18 21.32,-48.51 42.07,-61.47 17.87,-11.53 51.29,-23.05 80.11,-23.05 3.46,14.41 1.15,78.76 -4.61,91.73 -6.34,16.33 -42.07,37.46 -65.7,37.46zm-91.64 -202.19c0,27.85 31.7,16.81 43.8,-5.28 8.64,-16.33 7.49,-21.13 7.49,-44.19 8.07,-5.28 12.68,-8.64 24.78,-11.04 115.84,-19.69 88.18,56.67 88.18,114.78 -41.49,9.6 -80.11,15.85 -112.38,35.54 -78.38,47.06 -71.46,150.32 -9.8,150.32 42.65,0 70.31,-8.16 102.01,-39.38 6.91,-7.21 12.68,-16.81 22.48,-19.69 5.76,23.53 27.66,48.99 47.26,59.07 14.98,7.68 23.05,9.61 36.88,-0.96 8.07,-6.73 23.63,-19.21 24.21,-29.78 -36.88,-8.64 -63.39,-32.18 -63.39,-73 0,-47.55 2.88,-97.01 6.91,-141.2 4.61,-51.87 -10.95,-84.53 -65.7,-84.53 -42.65,0 -74.34,2.88 -106.04,23.53 -15.56,10.08 -46.68,41.3 -46.68,65.8z"/>
    <path class="fil1" d="M874.53 76.33c15.56,3.84 35.15,2.4 54.18,2.4 6.91,30.26 9.22,51.87 9.22,87.41 0,53.31 4.03,366.92 -2.31,392.86 -12.68,0 -24.78,0 -37.46,0 -29.39,0 -30.54,-4.32 -30.54,16.33 0,5.28 1.73,7.2 6.91,7.2l171.74 0c9.8,0 9.22,-8.64 9.22,-14.41 0,-14.41 -35.73,-9.13 -61.09,-9.13 -17.29,-36.5 -6.92,-138.32 -6.92,-188.27l0 -134.48c0,-24.49 2.31,-43.22 2.31,-65.8l0 -98.94c0,-38.9 4.03,-32.66 -32.85,-23.05 -10.95,2.4 -18.44,3.84 -31.7,5.77 -49.56,7.2 -50.72,-13.45 -50.72,22.09z"/>
    <path class="fil1" d="M387.54 598.86c84.14,0 73.19,-8.64 136.59,-23.53 0,-9.13 2.88,-22.09 5.19,-32.18 1.15,-8.16 4.03,-22.09 6.34,-31.22 -17.29,0.48 -3.46,0 -27.67,19.69 -29.97,24.01 -69.16,38.9 -108.92,38.9 -101.43,0 -155.03,-66.28 -155.03,-171.45 0,-175.78 173.47,-202.19 238.02,-139.76 19.02,18.25 36.88,52.83 39.19,80.69l7.49 0c0.58,-9.6 2.31,-12.97 2.31,-25.93l2.3 -89.33c-9.8,-2.4 -19.6,-6.24 -28.81,-9.12 -57.06,-15.37 -125.06,-22.57 -180.97,-0.48 -60.52,24.01 -95.1,70.12 -107.2,133.03 -2.3,14.89 -2.88,30.74 -4.61,44.18 -5.76,37.94 11.53,116.71 42.07,146.96 16.71,17.29 30.55,32.18 54.75,42.26 23.05,9.6 47.26,17.29 78.96,17.29z"/>
    <path class="fil1" d="M149.52 394.27c0,37.46 12.1,70.12 25.94,94.13 12.1,20.65 37.46,52.83 56.48,65.8 -1.73,-6.73 -4.61,-9.13 -8.07,-14.89 -48.99,-77.32 -55.33,-169.54 -13.83,-251.66 4.03,-7.68 13.26,-23.53 14.98,-29.78 -18.44,9.61 -28.82,22.57 -40.34,36.98 -20.75,24.98 -35.16,60.52 -35.16,99.42z"/>
    <path class="fil1" d="M1356.66 705.52c0,21.62 12.1,37.94 29.97,43.22 19.59,6.25 42.64,4.32 62.82,10.09 48.98,13.44 10.95,100.37 -65.71,62.91 -8.64,-4.32 -7.49,-1.92 -10.95,-10.08 -2.31,-5.77 -1.73,-12.97 -1.73,-21.61l-9.8 0c0,23.53 -1.73,32.66 -2.31,42.74 41.5,9.61 17.29,9.13 68.58,9.13 14.99,0 37.46,-12.01 46.11,-19.21 20.74,-18.25 33.42,-54.76 7.49,-79.25 -24.21,-22.09 -98.55,-0.48 -98.55,-42.74 0,-29.3 14.98,-42.26 47.26,-42.26 9.23,0 20.18,2.4 27.09,5.28 14.41,5.77 12.68,17.77 12.68,32.18l9.22 0c0,-14.88 2.31,-27.85 5.19,-39.86 -29.97,-7.2 -64.55,-24.01 -104.89,3.84 -12.1,8.16 -22.48,26.9 -22.48,45.62zm651.82 -49.47c0,40.83 30.54,24.01 30.54,9.61 0,-6.24 -5.76,-25.94 -30.54,-9.61zm-18.45 63.4l0 9.6c28.24,0 20.75,-12.48 20.75,91.73 0,11.53 -12.1,9.61 -20.75,9.61l0 9.12 68.01 0 0 -9.12c-15.56,0 -20.18,0.96 -21.33,-13.93 -2.88,-34.58 0,-66.76 0,-101.34 0,-11.53 -5.76,-4.32 -19.02,-0.48 -6.91,1.93 -20.74,4.32 -27.67,4.81zm-336.57 -70.6c0.57,11.05 0,9.61 20.74,9.61 0,14.89 2.31,19.69 2.31,35.06 0,15.85 1.73,120.54 -2.88,131.59 -5.76,14.89 -18.44,-6.73 -20.17,14.41l68 0 0 -9.12c-8.64,0 -21.32,1.92 -21.32,-9.61l0 -155.12c0,-17.29 9.8,-31.7 -8.06,-25.46 -12.1,3.84 -24.78,7.68 -38.62,8.64zm265.68 28.34l0 44.66c-9.22,2.4 -18.44,4.8 -21.32,14.41l21.32 0 0 73c0,40.82 38.62,33.62 43.81,31.7 5.76,-2.4 10.37,-7.21 14.98,-13.92 13.26,-22.09 -32.85,15.37 -32.85,-20.18l0 -73 35.16 0 0 -14.4 -35.16 0 0 -35.06c0,-8.17 5.77,-16.81 -5.76,-14.88 -6.92,1.44 -8.07,6.72 -20.18,7.68zm463.37 70.6c0,51.39 77.8,25.46 77.8,59.07 0,36.03 -65.7,26.9 -65.7,9.13l0 -18.73 -9.22 0c0,13.93 -2.88,23.05 -2.88,39.86 19.59,1.93 8.06,4.81 49.56,4.81 20.75,0 47.26,-17.29 47.26,-37.46l0 -12.01c0,-41.31 -75.5,-17.77 -75.5,-51.87 0,-21.13 29.39,-26.9 47.26,-13.93 7.49,4.81 9.22,8.65 9.22,21.14l9.22 0c0,-37.94 5.77,-27.85 -2.3,-32.66 -15.56,-9.12 -84.72,-13.44 -84.72,32.66zm-284.71 18.73c0,-63.88 80.11,-67.24 80.11,16.81 0,71.56 -80.11,64.36 -80.11,-16.81zm-25.94 7.2c0,36.98 21.33,68.2 54.18,68.2 21.9,0 40.34,-0.97 58.79,-19.21 35.16,-35.55 24.21,-118.63 -47.83,-113.35 -38.62,2.4 -65.13,27.85 -65.13,64.36zm-500.82 -54.27c51.87,0 58.21,113.34 6.92,113.34 -51.3,0 -62.82,-113.34 -6.92,-113.34zm-63.97 56.67c0,34.1 22.48,65.8 54.17,65.8l16.72 0c29.39,0 61.08,-31.7 61.08,-60.99 0,-27.38 0.58,-37.46 -21.9,-58.6 -28.24,-26.41 -110.07,-16.33 -110.07,53.79zm225.91 -56.67l0 9.6c27.67,0 21.91,-5.28 21.33,68.2 0,43.22 19.59,44.67 49.56,44.67 16.72,0 27.67,-16.81 37.46,-23.54 0,12.01 0,12.49 -2.31,21.14l47.26 0 0 -9.12c-26.51,0 -21.32,3.84 -21.32,-66.28 0,-81.16 16.72,-49.95 -47.26,-44.66l0 9.6c30.55,0 23.63,-9.6 23.63,61 0,36.01 -63.39,58.11 -63.39,0 0,-30.26 2.3,-51.87 2.3,-82.12 -8.64,4.32 -34.01,11.53 -47.26,11.53zm482.96 0l0 9.6 20.74 0c2.88,32.18 2.31,27.85 2.31,63.4 0,8.16 -0.58,17.29 -1.15,22.09 -2.31,16.81 2.88,15.86 -21.9,15.86l0 9.12 70.31 0c-1.15,-13.45 -5.76,-9.12 -21.32,-9.12 -2.88,-13.93 -7.49,-82.61 6.91,-94.62 14.41,-12.48 40.35,-11.04 49.56,2.4 11.53,16.34 4.61,54.28 4.61,66.28 0,14.89 0.58,22.57 -2.31,35.06l49.56 0 0 -9.12c-27.09,0 -21.33,5.28 -21.33,-54.28 0,-21.61 1.15,-39.86 -8.64,-52.34 -8.64,-11.05 -28.24,-16.34 -43.22,-13.93 -23.05,3.36 -22.48,13.93 -37.46,24.01 0,-43.22 1.73,-18.24 -46.68,-14.4z"/>
   </g>
  </g>
 </g>
</svg>
